<svg xmlns="http://www.w3.org/2000/svg" xmlns:xlink="http://www.w3.org/1999/xlink" width="500" zoomAndPan="magnify" viewBox="0 0 375 374.999991" height="500" preserveAspectRatio="xMidYMid meet" version="1.0"><defs><g/><clipPath id="baa41665eb"><path d="M 85 145 L 159 145 L 159 230 L 85 230 Z M 85 145 " clip-rule="nonzero"/></clipPath><clipPath id="47573e0a7a"><path d="M 69.574219 168.132812 L 138.925781 134.105469 L 174.9375 207.5 L 105.582031 241.523438 Z M 69.574219 168.132812 " clip-rule="nonzero"/></clipPath><clipPath id="05beeda3f1"><path d="M 69.574219 168.132812 L 138.925781 134.105469 L 174.9375 207.5 L 105.582031 241.523438 Z M 69.574219 168.132812 " clip-rule="nonzero"/></clipPath><clipPath id="6ced9236a2"><path d="M 152 138 L 173.6875 138 L 173.6875 161.257812 L 152 161.257812 Z M 152 138 " clip-rule="nonzero"/></clipPath><clipPath id="92cb663dad"><path d="M 168.882812 148.027344 C 167.144531 149.5 165.023438 150.4375 162.910156 151.292969 C 160.800781 152.152344 158.644531 152.96875 156.757812 154.25 C 156.742188 154.261719 156.726562 154.273438 156.714844 154.28125 C 154.46875 155.824219 153.042969 158.300781 152.785156 161.011719 C 152.765625 161.199219 152.75 161.382812 152.738281 161.566406 C 153.261719 159.351562 154.882812 157.519531 156.765625 156.234375 C 158.648438 154.949219 160.804688 154.136719 162.917969 153.277344 C 165.027344 152.417969 167.152344 151.480469 168.890625 150.007812 C 172.222656 147.183594 173.734375 142.589844 173.441406 138.21875 C 173.226562 141.949219 171.710938 145.621094 168.882812 148.027344 Z M 168.882812 148.027344 " clip-rule="nonzero"/></clipPath><clipPath id="18247e0c4c"><path d="M 151.1875 124.507812 L 172 124.507812 L 172 158 L 151.1875 158 Z M 151.1875 124.507812 " clip-rule="nonzero"/></clipPath><clipPath id="6e8bc55fa0"><path d="M 171.410156 135.871094 C 171.007812 131.691406 169.003906 127.796875 166.390625 124.515625 C 167.25 126.945312 166.050781 129.695312 164.203125 131.5 C 162.363281 133.300781 159.964844 134.394531 157.71875 135.65625 C 155.472656 136.921875 153.242188 138.492188 152.132812 140.816406 C 151.285156 142.601562 151.1875 144.667969 151.5 146.617188 C 151.707031 147.90625 152.085938 149.15625 152.515625 150.386719 C 153.113281 148.90625 153.925781 147.511719 154.921875 146.265625 C 156.972656 143.699219 159.550781 141.589844 162.199219 139.648438 C 167.261719 135.941406 167.59375 134.421875 167.691406 131.679688 C 168.214844 133.902344 167.105469 136.222656 165.550781 137.894531 C 163.996094 139.5625 162.015625 140.769531 160.265625 142.234375 C 155.628906 146.113281 152.660156 151.921875 152.242188 157.953125 C 152.730469 155.894531 154.230469 154.195312 155.980469 153.003906 C 157.730469 151.8125 159.726562 151.058594 161.683594 150.261719 C 163.644531 149.464844 165.613281 148.597656 167.222656 147.226562 C 170.421875 144.515625 171.808594 140.046875 171.410156 135.871094 Z M 171.410156 135.871094 " clip-rule="nonzero"/></clipPath></defs><g fill="#81b622" fill-opacity="1"><g transform="translate(46.327294, 211.070532)"><g><path d="M 21.683594 -55.285156 L 3.6875 -55.285156 L 3.6875 0 L 11.058594 0 L 11.058594 -24.257812 L 21.683594 -24.257812 C 28.113281 -24.257812 31.96875 -27 34.027344 -29.226562 C 36.425781 -31.96875 37.882812 -35.742188 37.882812 -39.511719 C 37.882812 -43.371094 36.257812 -47.3125 33.511719 -50.3125 C 30.425781 -53.570312 26.226562 -55.285156 21.683594 -55.285156 Z M 21.683594 -31.628906 L 11.058594 -31.628906 L 11.058594 -47.914062 L 21.683594 -47.914062 C 27 -47.914062 30.511719 -43.628906 30.511719 -39.511719 C 30.511719 -33.683594 25.800781 -31.628906 21.683594 -31.628906 Z M 21.683594 -31.628906 "/></g></g></g><g fill="#81b622" fill-opacity="1"><g transform="translate(88.840557, 211.070532)"><g/></g></g><g fill="#81b622" fill-opacity="1"><g transform="translate(115.753435, 211.070532)"><g/></g></g><g fill="#81b622" fill-opacity="1"><g transform="translate(142.666314, 211.070532)"><g/></g></g><g fill="#81b622" fill-opacity="1"><g transform="translate(169.581648, 211.070532)"><g><path d="M 54.082031 -12.597656 L 40.882812 -48.855469 L 40.882812 -48.941406 L 33.855469 -48.941406 L 33.855469 -48.855469 L 20.828125 -12.597656 L 7.542969 -55.285156 L 0.601562 -55.285156 L 17.65625 -0.0859375 L 23.914062 -0.0859375 L 37.371094 -37.457031 L 50.914062 -0.0859375 L 57.167969 -0.0859375 L 74.140625 -55.285156 L 67.113281 -55.285156 Z M 54.082031 -12.597656 "/></g></g></g><g fill="#81b622" fill-opacity="1"><g transform="translate(248.262594, 211.070532)"><g><path d="M 3.6875 0 L 32.054688 0 L 32.054688 -6.601562 L 10.371094 -6.601562 L 10.371094 -24.257812 L 30.171875 -24.257812 L 30.171875 -30.941406 L 10.371094 -30.941406 L 10.371094 -48.597656 L 32.054688 -48.597656 L 32.054688 -55.285156 L 3.6875 -55.285156 Z M 3.6875 0 "/></g></g></g><g fill="#81b622" fill-opacity="1"><g transform="translate(286.060478, 211.070532)"><g><path d="M 34.027344 -29.226562 C 36.425781 -31.96875 37.882812 -35.742188 37.882812 -39.511719 C 37.882812 -43.371094 36.257812 -47.3125 33.511719 -50.3125 C 30.425781 -53.570312 26.226562 -55.285156 21.683594 -55.285156 L 3.6875 -55.285156 L 3.6875 0 L 11.058594 0 L 11.058594 -24.257812 L 14.828125 -24.257812 L 34.027344 0 L 42.597656 0 L 23.3125 -24.257812 C 28.714844 -24.683594 32.140625 -27.171875 34.027344 -29.226562 Z M 11.058594 -47.914062 L 21.683594 -47.914062 C 27 -47.914062 30.511719 -43.628906 30.511719 -39.511719 C 30.511719 -33.683594 25.800781 -31.628906 21.683594 -31.628906 L 11.058594 -31.628906 Z M 11.058594 -47.914062 "/></g></g></g><g fill="#81b622" fill-opacity="1"><g transform="translate(332.690546, 211.070532)"><g/></g></g><g fill="#81b622" fill-opacity="1"><g transform="translate(359.603424, 211.070532)"><g/></g></g><g clip-path="url(#baa41665eb)"><g clip-path="url(#47573e0a7a)"><g clip-path="url(#05beeda3f1)"><path fill="#81b622" d="M 120.269531 216.605469 C 119.761719 216.5625 119.367188 216.558594 118.855469 216.515625 L 112.539062 221.179688 L 116.074219 216.023438 L 138.183594 183.953125 L 125.050781 181.105469 L 137.292969 145.859375 L 132.296875 152.417969 C 131.277344 152.136719 130.179688 151.894531 129.082031 151.648438 C 124.574219 150.828125 119.824219 150.714844 115.027344 151.699219 C 95.050781 155.632812 82.105469 174.894531 86 194.789062 C 88.308594 206.273438 95.777344 215.515625 105.4375 220.460938 L 107.460938 212.621094 C 100.582031 208.566406 95.371094 201.734375 93.746094 193.238281 C 90.644531 177.550781 100.890625 162.351562 116.578125 159.25 C 118.898438 158.796875 121.257812 158.617188 123.53125 158.675781 L 131.105469 153.980469 L 104.070312 193.75 L 117.808594 194.246094 L 106.863281 229.539062 L 111.425781 222.898438 C 112.5625 223.222656 113.699219 223.542969 114.875 223.75 C 119.425781 224.648438 124.136719 224.683594 128.972656 223.777344 C 148.871094 219.882812 161.855469 200.503906 157.960938 180.609375 C 155.730469 169.085938 148.261719 159.84375 138.519531 154.941406 L 136.5 162.777344 C 143.378906 166.835938 148.589844 173.667969 150.292969 182.121094 C 153.589844 197.8125 143.34375 213.007812 127.65625 216.109375 C 125.140625 216.5625 122.664062 216.703125 120.269531 216.605469 Z M 120.269531 216.605469 " fill-opacity="1" fill-rule="evenodd"/></g></g></g><g clip-path="url(#6ced9236a2)"><g clip-path="url(#92cb663dad)"><path fill="#81b622" d="M 173.6875 138.21875 L 173.6875 161.257812 L 152.738281 161.257812 L 152.738281 138.21875 Z M 173.6875 138.21875 " fill-opacity="1" fill-rule="nonzero"/></g></g><g clip-path="url(#18247e0c4c)"><g clip-path="url(#6e8bc55fa0)"><path fill="#81b622" d="M 171.808594 124.515625 L 171.808594 157.953125 L 151.1875 157.953125 L 151.1875 124.515625 Z M 171.808594 124.515625 " fill-opacity="1" fill-rule="nonzero"/></g></g><g fill="#ffffff" fill-opacity="1"><g transform="translate(103.654905, 246.08288)"><g><path d="M 0.953125 -1.921875 L 8 -1.921875 L 8.875 -2.71875 L 8.875 -3.921875 L 8 -4.71875 L 2.875 -4.71875 L 0.796875 -6.640625 L 0.796875 -9.28125 L 2.875 -11.203125 L 10.484375 -11.203125 L 10.484375 -9.28125 L 3.921875 -9.28125 L 3.046875 -8.484375 L 3.046875 -7.4375 L 3.921875 -6.640625 L 9.046875 -6.640625 L 11.125 -4.71875 L 11.125 -1.921875 L 9.046875 0 L 0.953125 0 Z M 0.953125 -1.921875 "/></g></g></g><g fill="#ffffff" fill-opacity="1"><g transform="translate(123.063246, 246.08288)"><g><path d="M 1.125 -1.921875 L 1.125 -9.28125 L 3.359375 -11.359375 L 9.84375 -11.359375 L 12.078125 -9.28125 L 12.078125 -1.921875 L 9.84375 0.15625 L 3.359375 0.15625 Z M 8.796875 -1.765625 L 9.84375 -2.71875 L 9.84375 -8.484375 L 8.796875 -9.4375 L 4.40625 -9.4375 L 3.359375 -8.484375 L 3.359375 -2.71875 L 4.40625 -1.765625 Z M 8.796875 -1.765625 "/></g></g></g><g fill="#ffffff" fill-opacity="1"><g transform="translate(143.83126, 246.08288)"><g><path d="M 1.359375 -11.203125 L 3.59375 -11.203125 L 3.59375 -1.921875 L 10.484375 -1.921875 L 10.484375 0 L 1.359375 0 Z M 1.359375 -11.203125 "/></g></g></g><g fill="#ffffff" fill-opacity="1"><g transform="translate(162.199847, 246.08288)"><g><path d="M 1.359375 -1.921875 L 1.359375 -11.203125 L 3.59375 -11.203125 L 3.59375 -2.71875 L 4.640625 -1.765625 L 8.640625 -1.765625 L 9.6875 -2.71875 L 9.6875 -11.203125 L 11.921875 -11.203125 L 11.921875 -1.921875 L 9.6875 0.15625 L 3.59375 0.15625 Z M 1.359375 -1.921875 "/></g></g></g><g fill="#ffffff" fill-opacity="1"><g transform="translate(183.047835, 246.08288)"><g><path d="M 4.484375 -9.28125 L 0.3125 -9.28125 L 0.3125 -11.203125 L 10.875 -11.203125 L 10.875 -9.28125 L 6.71875 -9.28125 L 6.71875 0 L 4.484375 0 Z M 4.484375 -9.28125 "/></g></g></g><g fill="#ffffff" fill-opacity="1"><g transform="translate(201.816322, 246.08288)"><g><path d="M 0.875 -1.921875 L 3.125 -1.921875 L 3.125 -9.28125 L 0.875 -9.28125 L 0.875 -11.203125 L 7.59375 -11.203125 L 7.59375 -9.28125 L 5.359375 -9.28125 L 5.359375 -1.921875 L 7.59375 -1.921875 L 7.59375 0 L 0.875 0 Z M 0.875 -1.921875 "/></g></g></g><g fill="#ffffff" fill-opacity="1"><g transform="translate(217.865469, 246.08288)"><g><path d="M 1.125 -1.921875 L 1.125 -9.28125 L 3.359375 -11.359375 L 9.84375 -11.359375 L 12.078125 -9.28125 L 12.078125 -1.921875 L 9.84375 0.15625 L 3.359375 0.15625 Z M 8.796875 -1.765625 L 9.84375 -2.71875 L 9.84375 -8.484375 L 8.796875 -9.4375 L 4.40625 -9.4375 L 3.359375 -8.484375 L 3.359375 -2.71875 L 4.40625 -1.765625 Z M 8.796875 -1.765625 "/></g></g></g><g fill="#ffffff" fill-opacity="1"><g transform="translate(238.633485, 246.08288)"><g><path d="M 1.359375 -11.203125 L 3.515625 -11.203125 L 9.6875 -3.515625 L 9.6875 -11.203125 L 11.921875 -11.203125 L 11.921875 0 L 9.765625 0 L 3.59375 -7.6875 L 3.59375 0 L 1.359375 0 Z M 1.359375 -11.203125 "/></g></g></g><g fill="#ffffff" fill-opacity="1"><g transform="translate(259.481472, 246.08288)"><g><path d="M 0.953125 -1.921875 L 8 -1.921875 L 8.875 -2.71875 L 8.875 -3.921875 L 8 -4.71875 L 2.875 -4.71875 L 0.796875 -6.640625 L 0.796875 -9.28125 L 2.875 -11.203125 L 10.484375 -11.203125 L 10.484375 -9.28125 L 3.921875 -9.28125 L 3.046875 -8.484375 L 3.046875 -7.4375 L 3.921875 -6.640625 L 9.046875 -6.640625 L 11.125 -4.71875 L 11.125 -1.921875 L 9.046875 0 L 0.953125 0 Z M 0.953125 -1.921875 "/></g></g></g><path stroke-linecap="butt" transform="matrix(0.75, 0, 0, 0.75, 53.150543, 235.957881)" fill="none" stroke-linejoin="miter" d="M 0.00240152 6.998868 L 56.528447 6.998868 " stroke="#81b622" stroke-width="14" stroke-opacity="1" stroke-miterlimit="4"/><path stroke-linecap="butt" transform="matrix(0.75, 0, 0, 0.75, 279.45488, 235.982166)" fill="none" stroke-linejoin="miter" d="M -0.00233967 6.997737 L 56.523706 6.997737 " stroke="#81b622" stroke-width="14" stroke-opacity="1" stroke-miterlimit="4"/></svg>